<svg xmlns="http://www.w3.org/2000/svg" width="93.166" height="93.208" viewBox="0 0 93.166 93.208"><defs><style>.a,.b{fill:#fff;}.b{font-size:15px;font-family:PingFangSC-Regular, PingFang SC;}</style></defs><path class="a" d="M26.413,13.534a9.918,9.918,0,0,0-6.976,2.4,11.262,11.262,0,0,0-2.227,7.186.462.462,0,0,0,.462.5,10.086,10.086,0,0,0,6.976-2.4,10.842,10.842,0,0,0,2.269-7.312.462.462,0,0,0-.5-.378ZM17.21,3.448a.42.42,0,0,0-.672,0,10.758,10.758,0,0,0-3.53,6.766,10.758,10.758,0,0,0,3.278,6.808.42.42,0,0,0,.672,0,10.758,10.758,0,0,0,3.278-6.808A10.758,10.758,0,0,0,17.21,3.448Zm9.2,19.667a9.834,9.834,0,0,0-6.976,2.353,11.43,11.43,0,0,0-2.227,7.354.5.5,0,0,0,.462.5,10.086,10.086,0,0,0,6.976-2.4,10.884,10.884,0,0,0,2.269-7.312.462.462,0,0,0-.5-.5Zm-19.5-9.581A.462.462,0,0,0,6.452,14,10.842,10.842,0,0,0,8.8,21.308a10.086,10.086,0,0,0,6.976,2.4.462.462,0,0,0,.378-.588,11.262,11.262,0,0,0-2.269-7.27,9.918,9.918,0,0,0-6.976-2.311Zm0,19.247a.462.462,0,0,0-.462.462A10.884,10.884,0,0,0,8.8,40.555a10.086,10.086,0,0,0,6.976,2.4.546.546,0,0,0,.462-.5,11.43,11.43,0,0,0-2.269-7.312,9.834,9.834,0,0,0-7.06-2.353Zm19.5,0a9.833,9.833,0,0,0-6.976,2.353,11.43,11.43,0,0,0-2.227,7.312.546.546,0,0,0,.462.5,10.086,10.086,0,0,0,6.976-2.4,10.884,10.884,0,0,0,2.269-7.312.462.462,0,0,0-.5-.462Zm-19.5-9.665a.462.462,0,0,0-.462.462A10.884,10.884,0,0,0,8.8,30.931a10.086,10.086,0,0,0,6.976,2.4.5.5,0,0,0,.462-.5,11.43,11.43,0,0,0-2.269-7.312A9.834,9.834,0,0,0,6.914,23.115Zm31.518,5.337a.336.336,0,0,0,.336.336,7.1,7.1,0,0,0,5.127-1.471,7.943,7.943,0,0,0,1.639-5.337A.336.336,0,0,0,45.2,21.6a7.354,7.354,0,0,0-5.085,1.513,8.4,8.4,0,0,0-1.681,5.379ZM45.2,35.428a7.354,7.354,0,0,0-5.085,1.765,8.4,8.4,0,0,0-1.681,5.337.42.42,0,0,0,.336.378,7.4,7.4,0,0,0,5.127-1.765,7.9,7.9,0,0,0,1.639-5.421.336.336,0,0,0-.336-.252Zm-14.288,0a.378.378,0,0,0-.336.378,8.4,8.4,0,0,0,1.681,5.337,7.27,7.27,0,0,0,5.085,1.765.378.378,0,0,0,.336-.378,7.9,7.9,0,0,0-1.639-5.337,7.438,7.438,0,0,0-5.127-1.723ZM45.2,28.41a7.27,7.27,0,0,0-5.085,1.723,8.4,8.4,0,0,0-1.681,5.379.378.378,0,0,0,.336.336,7.4,7.4,0,0,0,5.127-1.765,7.9,7.9,0,0,0,1.639-5.337.336.336,0,0,0-.336-.294ZM38.221,14a.336.336,0,0,0-.462,0,7.858,7.858,0,0,0-2.353,4.917,7.648,7.648,0,0,0,2.437,4.959.294.294,0,0,0,.462,0,7.816,7.816,0,0,0,2.4-4.959A8.068,8.068,0,0,0,38.221,14Zm-7.312,7.4a.378.378,0,0,0-.336.378,8.4,8.4,0,0,0,1.681,5.547,7.018,7.018,0,0,0,5.085,1.723.294.294,0,0,0,.336-.336,7.9,7.9,0,0,0-1.639-5.589,7.438,7.438,0,0,0-5.127-1.723Zm0,7.06a.378.378,0,0,0-.336.336,8.4,8.4,0,0,0,1.681,5.337,7.27,7.27,0,0,0,5.085,1.765.336.336,0,0,0,.336-.336,7.984,7.984,0,0,0-1.639-5.379,7.354,7.354,0,0,0-5.127-1.723Z" transform="translate(20.612 10.504)"/><path class="a" d="M71.44,93.208H21.768A21.768,21.768,0,0,1,0,71.44V21.768A21.768,21.768,0,0,1,21.768,0H71.44A21.768,21.768,0,0,1,93.166,21.768V71.44A21.768,21.768,0,0,1,71.44,93.208ZM21.768,4.791A16.809,16.809,0,0,0,4.959,21.6V71.44A16.809,16.809,0,0,0,21.768,88.249H71.44A16.809,16.809,0,0,0,88.249,71.44V21.768A16.809,16.809,0,0,0,71.44,4.959Z"/><text class="b" transform="translate(20.97 74.455)"><tspan x="0" y="0">无麸质</tspan></text></svg>