<svg xmlns="http://www.w3.org/2000/svg" width="93.166" height="93.208" viewBox="0 0 93.166 93.208"><defs><style>.a,.b{fill:#fff;}.b{font-size:15px;font-family:PingFangSC-Regular, PingFang SC;}</style></defs><path class="a" d="M41.346,29.6V18.3a3.236,3.236,0,0,0,2.4-3.11,3.278,3.278,0,0,0-5.589-2.311L28.445,7.286a2.69,2.69,0,0,0,0-.84A3.278,3.278,0,0,0,25.167,3.21a3.236,3.236,0,0,0-3.236,3.236,5.169,5.169,0,0,0,0,.84l-9.623,5.589A3.245,3.245,0,1,0,9.24,18.3V29.6a3.278,3.278,0,1,0,3.068,5.463l9.707,5.631a5.169,5.169,0,0,0,0,.84,3.236,3.236,0,0,0,3.236,3.236,3.278,3.278,0,0,0,3.278-3.236,2.69,2.69,0,0,0,0-.84l9.749-5.631a3.194,3.194,0,0,0,2.269.967,3.278,3.278,0,0,0,.882-6.43Zm-4.2,3.152a5.715,5.715,0,0,0,0,.84l-9.707,5.589a3.236,3.236,0,0,0-1.429-.8V28.8A4.875,4.875,0,0,0,30,24.012a4.413,4.413,0,0,0-.294-1.681l8.4-4.791A3.194,3.194,0,0,0,39.5,18.3V29.6a3.236,3.236,0,0,0-2.269,3.152ZM11,29.6V18.3a3.278,3.278,0,0,0,1.3-.756l8.4,4.791a5.421,5.421,0,0,0-.294,1.681,4.875,4.875,0,0,0,4.2,4.791v9.581a3.026,3.026,0,0,0-1.429.8l-9.918-5.589a2.9,2.9,0,0,0,0-.84A3.32,3.32,0,0,0,11,29.6ZM23.024,8.8a3.194,3.194,0,0,0,2.269.925A3.278,3.278,0,0,0,27.6,8.8l9.918,5.589a2.437,2.437,0,0,0,0,.8,2.689,2.689,0,0,0,0,.84l-8.4,4.833a4.791,4.791,0,0,0-7.438,0l-8.4-4.833a5.168,5.168,0,0,0,0-.84,2.437,2.437,0,0,0,0-.8Z" transform="translate(21.311 10.28)"/><path class="a" d="M71.44,93.208H21.768A21.768,21.768,0,0,1,0,71.44V21.768A21.768,21.768,0,0,1,21.768,0H71.44A21.768,21.768,0,0,1,93.166,21.768V71.44A21.768,21.768,0,0,1,71.44,93.208ZM21.768,4.791A16.809,16.809,0,0,0,4.959,21.6V71.44A16.809,16.809,0,0,0,21.768,88.249H71.44A16.809,16.809,0,0,0,88.249,71.44V21.768A16.809,16.809,0,0,0,71.44,4.959Z"/><text class="b" transform="translate(12.145 74.455)"><tspan x="0" y="0">无防腐剂</tspan></text></svg>