<svg xmlns="http://www.w3.org/2000/svg" width="30.294" height="26.507" viewBox="0 0 30.294 26.507"><defs><style>.a{fill:#fff;}</style></defs><g transform="translate(0 -32)"><g transform="translate(0 32)"><g transform="translate(0 0)"><path class="a" d="M11.36,32C5.086,32,0,36.239,0,41.467a8.962,8.962,0,0,0,4.338,7.418l-1.5,3,4.08-1.748a12.9,12.9,0,0,0,2.755.685,7.927,7.927,0,0,1-.208-1.778c0-5.22,5.095-9.467,11.36-9.467a13.74,13.74,0,0,1,1.687.115C21.514,35.311,16.9,32,11.36,32ZM7.573,39.1a1.42,1.42,0,1,1,1.42-1.42A1.421,1.421,0,0,1,7.573,39.1Zm7.573,0a1.42,1.42,0,1,1,1.42-1.42A1.421,1.421,0,0,1,15.147,39.1Z" transform="translate(0 -32)"/></g></g><g transform="translate(11.36 41.467)"><path class="a" d="M210.933,199.573c0-4.182-4.239-7.573-9.467-7.573S192,195.391,192,199.573s4.239,7.573,9.467,7.573a11.568,11.568,0,0,0,2.471-.293l5.1,2.187-1.765-3.527A7.135,7.135,0,0,0,210.933,199.573Zm-12.307-.473a1.42,1.42,0,1,1,1.42-1.42A1.421,1.421,0,0,1,198.627,199.1Zm5.68,0a1.42,1.42,0,1,1,1.42-1.42A1.421,1.421,0,0,1,204.307,199.1Z" transform="translate(-192 -192)"/></g></g></svg>