<svg xmlns="http://www.w3.org/2000/svg" width="93.208" height="93.208" viewBox="0 0 93.208 93.208">
    <g id="Group_363" data-name="Group 363" transform="translate(-619 -2522)">
        <g id="Layer_2-2" data-name="Layer 2" transform="translate(619 2522)">
            <g id="Layer_1-2" data-name="Layer 1">
                <path id="Path_2670" data-name="Path 2670" d="M39.681,36.436,31.822,22.863a16.347,16.347,0,0,1-2.185-8.153v-8.4h.546a1.261,1.261,0,0,0,0-2.479H17.03a1.261,1.261,0,1,0,0,2.479h.5v8.4a16.347,16.347,0,0,1-2.185,8.153L7.491,36.436a2.437,2.437,0,0,0,2.1,3.614H37.58a2.437,2.437,0,0,0,2.1-3.614Zm-24.164.8a2.563,2.563,0,1,1,2.563-2.563,2.563,2.563,0,0,1-2.563,2.563Zm3.992-6.3a1.723,1.723,0,1,1,1.713-.764,1.723,1.723,0,0,1-1.713.764Zm10.044-5.295a8.4,8.4,0,0,1-3.32.756,8.4,8.4,0,0,1-3.026-.756,7.942,7.942,0,0,0-3.194-.714,19.079,19.079,0,0,0-4.2.588L16.9,23.661a18.238,18.238,0,0,0,2.4-8.993v-8.4h8.657v8.4a17.816,17.816,0,0,0,2.436,8.991l.758,1.389a9.624,9.624,0,0,0-1.6.588Z" transform="translate(23.018 12.185)" fill="#fff"/>
                <path id="Path_2671" data-name="Path 2671" d="M71.44,93.208H21.768A21.768,21.768,0,0,1,0,71.44V21.768A21.768,21.768,0,0,1,21.768,0H71.44A21.768,21.768,0,0,1,93.166,21.768V71.44A21.768,21.768,0,0,1,71.44,93.208ZM21.768,4.791A16.809,16.809,0,0,0,4.959,21.6V71.44A16.809,16.809,0,0,0,21.768,88.249H71.44A16.809,16.809,0,0,0,88.249,71.44V21.768A16.809,16.809,0,0,0,71.44,4.959Z" fill="#fff"/>
                <text id="非转基因" transform="translate(12.145 74.455)" fill="#fff" font-size="15" font-family="PingFangSC-Regular, PingFang SC"><tspan x="0" y="0">非转基因</tspan></text>
            </g>
        </g>
    </g>
</svg>
