<svg id="supermarket" xmlns="http://www.w3.org/2000/svg" width="30.77" height="27.044" viewBox="0 0 30.77 27.044">
  <path id="Path_2677" data-name="Path 2677" d="M9.914,18.03H26.263a.9.9,0,0,0,.867-.654L30.736,4.755a.9.9,0,0,0-.867-1.149H7.835L7.19.706A.9.9,0,0,0,6.31,0H.9a.9.9,0,0,0,0,1.8H5.587L8.842,16.45a2.7,2.7,0,0,0,1.074,5.186H26.263a.9.9,0,0,0,0-1.8H9.916a.9.9,0,0,1,0-1.8ZM28.674,5.409,25.583,16.227H10.639L8.235,5.409Zm0,0" transform="translate(0)"/>
  <path id="Path_2678" data-name="Path 2678" d="M150,362.7a2.7,2.7,0,1,0,2.7-2.7A2.708,2.708,0,0,0,150,362.7Zm2.7-.9a.9.9,0,1,1-.9.9A.9.9,0,0,1,152.7,361.8Zm0,0" transform="translate(-140.985 -338.365)"/>
  <path id="Path_2679" data-name="Path 2679" d="M362,362.7a2.7,2.7,0,1,0,2.7-2.7A2.708,2.708,0,0,0,362,362.7Zm2.7-.9a.9.9,0,1,1-.9.9A.9.9,0,0,1,364.7,361.8Zm0,0" transform="translate(-340.244 -338.365)"/>
</svg>
