<svg xmlns="http://www.w3.org/2000/svg" width="634.166" height="93.208" viewBox="0 0 634.166 93.208">
  <g id="Group_363" data-name="Group 363" transform="translate(-619 -2522)">
    <g id="Layer_2" data-name="Layer 2" transform="translate(619 2522)">
      <g id="Layer_1" data-name="Layer 1">
        <path id="Path_2668" data-name="Path 2668" d="M26.413,13.534a9.918,9.918,0,0,0-6.976,2.4,11.262,11.262,0,0,0-2.227,7.186.462.462,0,0,0,.462.5,10.086,10.086,0,0,0,6.976-2.4,10.842,10.842,0,0,0,2.269-7.312.462.462,0,0,0-.5-.378ZM17.21,3.448a.42.42,0,0,0-.672,0,10.758,10.758,0,0,0-3.53,6.766,10.758,10.758,0,0,0,3.278,6.808.42.42,0,0,0,.672,0,10.758,10.758,0,0,0,3.278-6.808A10.758,10.758,0,0,0,17.21,3.448Zm9.2,19.667a9.834,9.834,0,0,0-6.976,2.353,11.43,11.43,0,0,0-2.227,7.354.5.5,0,0,0,.462.5,10.086,10.086,0,0,0,6.976-2.4,10.884,10.884,0,0,0,2.269-7.312.462.462,0,0,0-.5-.5Zm-19.5-9.581A.462.462,0,0,0,6.452,14,10.842,10.842,0,0,0,8.8,21.308a10.086,10.086,0,0,0,6.976,2.4.462.462,0,0,0,.378-.588,11.262,11.262,0,0,0-2.269-7.27,9.918,9.918,0,0,0-6.976-2.311Zm0,19.247a.462.462,0,0,0-.462.462A10.884,10.884,0,0,0,8.8,40.555a10.086,10.086,0,0,0,6.976,2.4.546.546,0,0,0,.462-.5,11.43,11.43,0,0,0-2.269-7.312,9.834,9.834,0,0,0-7.06-2.353Zm19.5,0a9.833,9.833,0,0,0-6.976,2.353,11.43,11.43,0,0,0-2.227,7.312.546.546,0,0,0,.462.5,10.086,10.086,0,0,0,6.976-2.4,10.884,10.884,0,0,0,2.269-7.312.462.462,0,0,0-.5-.462Zm-19.5-9.665a.462.462,0,0,0-.462.462A10.884,10.884,0,0,0,8.8,30.931a10.086,10.086,0,0,0,6.976,2.4.5.5,0,0,0,.462-.5,11.43,11.43,0,0,0-2.269-7.312A9.834,9.834,0,0,0,6.914,23.115Zm31.518,5.337a.336.336,0,0,0,.336.336,7.1,7.1,0,0,0,5.127-1.471,7.943,7.943,0,0,0,1.639-5.337A.336.336,0,0,0,45.2,21.6a7.354,7.354,0,0,0-5.085,1.513,8.4,8.4,0,0,0-1.681,5.379ZM45.2,35.428a7.354,7.354,0,0,0-5.085,1.765,8.4,8.4,0,0,0-1.681,5.337.42.42,0,0,0,.336.378,7.4,7.4,0,0,0,5.127-1.765,7.9,7.9,0,0,0,1.639-5.421.336.336,0,0,0-.336-.252Zm-14.288,0a.378.378,0,0,0-.336.378,8.4,8.4,0,0,0,1.681,5.337,7.27,7.27,0,0,0,5.085,1.765.378.378,0,0,0,.336-.378,7.9,7.9,0,0,0-1.639-5.337,7.438,7.438,0,0,0-5.127-1.723ZM45.2,28.41a7.27,7.27,0,0,0-5.085,1.723,8.4,8.4,0,0,0-1.681,5.379.378.378,0,0,0,.336.336,7.4,7.4,0,0,0,5.127-1.765,7.9,7.9,0,0,0,1.639-5.337.336.336,0,0,0-.336-.294ZM38.221,14a.336.336,0,0,0-.462,0,7.858,7.858,0,0,0-2.353,4.917,7.648,7.648,0,0,0,2.437,4.959.294.294,0,0,0,.462,0,7.816,7.816,0,0,0,2.4-4.959A8.068,8.068,0,0,0,38.221,14Zm-7.312,7.4a.378.378,0,0,0-.336.378,8.4,8.4,0,0,0,1.681,5.547,7.018,7.018,0,0,0,5.085,1.723.294.294,0,0,0,.336-.336,7.9,7.9,0,0,0-1.639-5.589,7.438,7.438,0,0,0-5.127-1.723Zm0,7.06a.378.378,0,0,0-.336.336,8.4,8.4,0,0,0,1.681,5.337,7.27,7.27,0,0,0,5.085,1.765.336.336,0,0,0,.336-.336,7.984,7.984,0,0,0-1.639-5.379,7.354,7.354,0,0,0-5.127-1.723Z" transform="translate(20.612 10.504)" fill="#fff"/>
        <path id="Path_2669" data-name="Path 2669" d="M71.44,93.208H21.768A21.768,21.768,0,0,1,0,71.44V21.768A21.768,21.768,0,0,1,21.768,0H71.44A21.768,21.768,0,0,1,93.166,21.768V71.44A21.768,21.768,0,0,1,71.44,93.208ZM21.768,4.791A16.809,16.809,0,0,0,4.959,21.6V71.44A16.809,16.809,0,0,0,21.768,88.249H71.44A16.809,16.809,0,0,0,88.249,71.44V21.768A16.809,16.809,0,0,0,71.44,4.959Z" fill="#fff"/>
        <text id="无麸质" transform="translate(20.97 74.455)" fill="#fff" font-size="15" font-family="PingFangSC-Regular, PingFang SC"><tspan x="0" y="0">无麸质</tspan></text>
      </g>
    </g>
    <g id="Layer_2-2" data-name="Layer 2" transform="translate(799 2522)">
      <g id="Layer_1-2" data-name="Layer 1">
        <path id="Path_2670" data-name="Path 2670" d="M39.681,36.436,31.822,22.863a16.347,16.347,0,0,1-2.185-8.153v-8.4h.546a1.261,1.261,0,0,0,0-2.479H17.03a1.261,1.261,0,1,0,0,2.479h.5v8.4a16.347,16.347,0,0,1-2.185,8.153L7.491,36.436a2.437,2.437,0,0,0,2.1,3.614H37.58a2.437,2.437,0,0,0,2.1-3.614Zm-24.164.8a2.563,2.563,0,1,1,2.563-2.563,2.563,2.563,0,0,1-2.563,2.563Zm3.992-6.3a1.723,1.723,0,1,1,1.713-.764,1.723,1.723,0,0,1-1.713.764Zm10.044-5.295a8.4,8.4,0,0,1-3.32.756,8.4,8.4,0,0,1-3.026-.756,7.942,7.942,0,0,0-3.194-.714,19.079,19.079,0,0,0-4.2.588L16.9,23.661a18.238,18.238,0,0,0,2.4-8.993v-8.4h8.657v8.4a17.816,17.816,0,0,0,2.436,8.991l.758,1.389a9.624,9.624,0,0,0-1.6.588Z" transform="translate(23.018 12.185)" fill="#fff"/>
        <path id="Path_2671" data-name="Path 2671" d="M71.44,93.208H21.768A21.768,21.768,0,0,1,0,71.44V21.768A21.768,21.768,0,0,1,21.768,0H71.44A21.768,21.768,0,0,1,93.166,21.768V71.44A21.768,21.768,0,0,1,71.44,93.208ZM21.768,4.791A16.809,16.809,0,0,0,4.959,21.6V71.44A16.809,16.809,0,0,0,21.768,88.249H71.44A16.809,16.809,0,0,0,88.249,71.44V21.768A16.809,16.809,0,0,0,71.44,4.959Z" fill="#fff"/>
        <text id="非转基因" transform="translate(12.145 74.455)" fill="#fff" font-size="15" font-family="PingFangSC-Regular, PingFang SC"><tspan x="0" y="0">非转基因</tspan></text>
      </g>
    </g>
    <g id="Layer_2-3" data-name="Layer 2" transform="translate(980 2522)">
      <g id="Layer_1-3" data-name="Layer 1">
        <path id="Path_2672" data-name="Path 2672" d="M47.886,11a.546.546,0,0,0-.672-.378c-2.69.546-14.918,3.656-19.2,12.9a22.609,22.609,0,0,0,1.009,18.953.21.21,0,1,0,.42,0,55.975,55.975,0,0,1,12.9-23.029S37.884,24.909,31.37,43.063c0,0,0,.336.252.336A23.827,23.827,0,0,0,47,32.977C52.088,24.236,48.726,13.436,47.886,11ZM14.939,14.823A151.032,151.032,0,0,0,25.487,38.356h.252A21.852,21.852,0,0,1,26.58,23.1a18.532,18.532,0,0,1,2.563-4.2,1.093,1.093,0,0,0,0-1.135A35.132,35.132,0,0,0,11.409,3.351a.462.462,0,0,0-.588,0c-1.3,2.4-8.111,15.969-2.984,27.021A26.349,26.349,0,0,0,25.655,43.651v-.336A60.388,60.388,0,0,1,14.939,14.823Z" transform="translate(19.058 10.391)" fill="#fff"/>
        <path id="Path_2673" data-name="Path 2673" d="M71.44,93.208H21.768A21.768,21.768,0,0,1,0,71.44V21.768A21.768,21.768,0,0,1,21.768,0H71.44A21.768,21.768,0,0,1,93.166,21.768V71.44A21.768,21.768,0,0,1,71.44,93.208ZM21.768,4.791A16.809,16.809,0,0,0,4.959,21.6V71.44A16.809,16.809,0,0,0,21.768,88.249H71.44A16.809,16.809,0,0,0,88.249,71.44V21.768A16.809,16.809,0,0,0,71.44,4.959Z" fill="#fff"/>
        <text id="纯天然" transform="translate(20.97 74.455)" fill="#fff" font-size="15" font-family="PingFangSC-Regular, PingFang SC"><tspan x="0" y="0">纯天然</tspan></text>
      </g>
    </g>
    <g id="Layer_2-4" data-name="Layer 2" transform="translate(1160 2522)">
      <g id="Layer_1-4" data-name="Layer 1">
        <path id="Path_2674" data-name="Path 2674" d="M41.346,29.6V18.3a3.236,3.236,0,0,0,2.4-3.11,3.278,3.278,0,0,0-5.589-2.311L28.445,7.286a2.69,2.69,0,0,0,0-.84A3.278,3.278,0,0,0,25.167,3.21a3.236,3.236,0,0,0-3.236,3.236,5.169,5.169,0,0,0,0,.84l-9.623,5.589A3.245,3.245,0,1,0,9.24,18.3V29.6a3.278,3.278,0,1,0,3.068,5.463l9.707,5.631a5.169,5.169,0,0,0,0,.84,3.236,3.236,0,0,0,3.236,3.236,3.278,3.278,0,0,0,3.278-3.236,2.69,2.69,0,0,0,0-.84l9.749-5.631a3.194,3.194,0,0,0,2.269.967,3.278,3.278,0,0,0,.882-6.43Zm-4.2,3.152a5.715,5.715,0,0,0,0,.84l-9.707,5.589a3.236,3.236,0,0,0-1.429-.8V28.8A4.875,4.875,0,0,0,30,24.012a4.413,4.413,0,0,0-.294-1.681l8.4-4.791A3.194,3.194,0,0,0,39.5,18.3V29.6a3.236,3.236,0,0,0-2.269,3.152ZM11,29.6V18.3a3.278,3.278,0,0,0,1.3-.756l8.4,4.791a5.421,5.421,0,0,0-.294,1.681,4.875,4.875,0,0,0,4.2,4.791v9.581a3.026,3.026,0,0,0-1.429.8l-9.918-5.589a2.9,2.9,0,0,0,0-.84A3.32,3.32,0,0,0,11,29.6ZM23.024,8.8a3.194,3.194,0,0,0,2.269.925A3.278,3.278,0,0,0,27.6,8.8l9.918,5.589a2.437,2.437,0,0,0,0,.8,2.689,2.689,0,0,0,0,.84l-8.4,4.833a4.791,4.791,0,0,0-7.438,0l-8.4-4.833a5.168,5.168,0,0,0,0-.84,2.437,2.437,0,0,0,0-.8Z" transform="translate(21.311 10.28)" fill="#fff"/>
        <path id="Path_2675" data-name="Path 2675" d="M71.44,93.208H21.768A21.768,21.768,0,0,1,0,71.44V21.768A21.768,21.768,0,0,1,21.768,0H71.44A21.768,21.768,0,0,1,93.166,21.768V71.44A21.768,21.768,0,0,1,71.44,93.208ZM21.768,4.791A16.809,16.809,0,0,0,4.959,21.6V71.44A16.809,16.809,0,0,0,21.768,88.249H71.44A16.809,16.809,0,0,0,88.249,71.44V21.768A16.809,16.809,0,0,0,71.44,4.959Z" fill="#fff"/>
        <text id="无防腐剂" transform="translate(12.145 74.455)" fill="#fff" font-size="15" font-family="PingFangSC-Regular, PingFang SC"><tspan x="0" y="0">无防腐剂</tspan></text>
      </g>
    </g>
  </g>
</svg>
