<svg id="supermarket" xmlns="http://www.w3.org/2000/svg" width="37.468" height="32.931" viewBox="0 0 37.468 32.931">
  <path id="Path_2677" data-name="Path 2677" d="M12.072,21.954H31.98a1.1,1.1,0,0,0,1.055-.8L37.426,5.79a1.1,1.1,0,0,0-1.055-1.4H9.54L8.756.86A1.1,1.1,0,0,0,7.684,0H1.1a1.1,1.1,0,1,0,0,2.2H6.8L10.767,20.03a3.293,3.293,0,0,0,1.308,6.315h19.9a1.1,1.1,0,0,0,0-2.2h-19.9a1.1,1.1,0,0,1,0-2.2ZM34.915,6.586,31.151,19.759h-18.2L10.028,6.586Zm0,0" transform="translate(0)" fill="#f4f4f4"/>
  <path id="Path_2678" data-name="Path 2678" d="M150,363.293A3.293,3.293,0,1,0,153.293,360,3.3,3.3,0,0,0,150,363.293Zm3.293-1.1a1.1,1.1,0,1,1-1.1,1.1A1.1,1.1,0,0,1,153.293,362.2Zm0,0" transform="translate(-139.023 -333.655)" fill="#f4f4f4"/>
  <path id="Path_2679" data-name="Path 2679" d="M362,363.293A3.293,3.293,0,1,0,365.293,360,3.3,3.3,0,0,0,362,363.293Zm3.293-1.1a1.1,1.1,0,1,1-1.1,1.1A1.1,1.1,0,0,1,365.293,362.2Zm0,0" transform="translate(-335.509 -333.655)" fill="#f4f4f4"/>
</svg>
