<svg xmlns="http://www.w3.org/2000/svg" width="93.208" height="93.208" viewBox="0 0 93.208 93.208">
    <g id="Group_363" data-name="Group 363" transform="translate(-619 -2522)">
        <g id="Layer_2-3" data-name="Layer 2" transform="translate(619 2522)">
            <g id="Layer_1-3" data-name="Layer 1">
                <path id="Path_2672" data-name="Path 2672" d="M47.886,11a.546.546,0,0,0-.672-.378c-2.69.546-14.918,3.656-19.2,12.9a22.609,22.609,0,0,0,1.009,18.953.21.21,0,1,0,.42,0,55.975,55.975,0,0,1,12.9-23.029S37.884,24.909,31.37,43.063c0,0,0,.336.252.336A23.827,23.827,0,0,0,47,32.977C52.088,24.236,48.726,13.436,47.886,11ZM14.939,14.823A151.032,151.032,0,0,0,25.487,38.356h.252A21.852,21.852,0,0,1,26.58,23.1a18.532,18.532,0,0,1,2.563-4.2,1.093,1.093,0,0,0,0-1.135A35.132,35.132,0,0,0,11.409,3.351a.462.462,0,0,0-.588,0c-1.3,2.4-8.111,15.969-2.984,27.021A26.349,26.349,0,0,0,25.655,43.651v-.336A60.388,60.388,0,0,1,14.939,14.823Z" transform="translate(19.058 10.391)" fill="#fff"/>
                <path id="Path_2673" data-name="Path 2673" d="M71.44,93.208H21.768A21.768,21.768,0,0,1,0,71.44V21.768A21.768,21.768,0,0,1,21.768,0H71.44A21.768,21.768,0,0,1,93.166,21.768V71.44A21.768,21.768,0,0,1,71.44,93.208ZM21.768,4.791A16.809,16.809,0,0,0,4.959,21.6V71.44A16.809,16.809,0,0,0,21.768,88.249H71.44A16.809,16.809,0,0,0,88.249,71.44V21.768A16.809,16.809,0,0,0,71.44,4.959Z" fill="#fff"/>
                <text id="纯天然" transform="translate(20.97 74.455)" fill="#fff" font-size="15" font-family="PingFangSC-Regular, PingFang SC"><tspan x="0" y="0">纯天然</tspan></text>
            </g>
        </g>
    </g>
</svg>
