<svg xmlns="http://www.w3.org/2000/svg" width="24.541" height="26.507" viewBox="0 0 24.541 26.507">
  <g id="penguin" transform="translate(-1.172)">
    <path id="Path_2691" data-name="Path 2691" d="M21.731,11.051a8.635,8.635,0,1,0-16.573,0C4.07,11.925-.15,15.71,1.586,20.619c0,0,1.469-.126,2.675-2.357a9.44,9.44,0,0,0,1.979,3.809c-1.363.4-2.288,1.18-2.288,2.074,0,1.3,1.968,2.362,4.4,2.362A5.743,5.743,0,0,0,12.182,25.3a9.616,9.616,0,0,0,1.26.092A9.585,9.585,0,0,0,14.7,25.3a5.749,5.749,0,0,0,3.835,1.207c2.428,0,4.4-1.058,4.4-2.362,0-.893-.926-1.673-2.289-2.074a9.452,9.452,0,0,0,1.98-3.809c1.206,2.23,2.673,2.357,2.673,2.357C27.038,15.709,22.817,11.924,21.731,11.051Z" transform="translate(0)" fill="#fff"/>
  </g>
</svg>
