<svg id="phone" xmlns="http://www.w3.org/2000/svg" width="24.143" height="24.194" viewBox="0 0 24.143 24.194">
  <g id="Group_327" data-name="Group 327" transform="translate(0 0)">
    <path id="Path_2684" data-name="Path 2684" d="M24.049,17.756l-3.376-3.376a2.246,2.246,0,0,0-3.738.844,2.3,2.3,0,0,1-2.653,1.447c-2.412-.6-5.667-3.738-6.27-6.27A2.185,2.185,0,0,1,9.459,7.747,2.246,2.246,0,0,0,10.3,4.009L6.926.633a2.408,2.408,0,0,0-3.256,0L1.38,2.924c-2.291,2.412.241,8.8,5.909,14.47s12.058,8.32,14.47,5.909l2.291-2.291A2.408,2.408,0,0,0,24.049,17.756Z" transform="translate(-0.539 0)"/>
  </g>
</svg>
