<svg id="pin" xmlns="http://www.w3.org/2000/svg" width="18.374" height="24.117" viewBox="0 0 18.374 24.117">
  <g id="Group_329" data-name="Group 329" transform="translate(0 0)">
    <g id="Group_328" data-name="Group 328">
      <path id="Path_2685" data-name="Path 2685" d="M78.889,6.269A8.951,8.951,0,0,0,73.06.44,9.374,9.374,0,0,0,64.7,1.779a9.229,9.229,0,0,0-3.741,7.4A9.108,9.108,0,0,0,62.8,14.686l7.354,9.43L77.5,14.686A9.287,9.287,0,0,0,78.889,6.269ZM70.15,14.125A4.947,4.947,0,1,1,75.1,9.178,4.953,4.953,0,0,1,70.15,14.125Z" transform="translate(-60.962 0)"/>
    </g>
  </g>
  <g id="Group_331" data-name="Group 331" transform="translate(5.654 5.654)">
    <g id="Group_330" data-name="Group 330">
      <path id="Path_2686" data-name="Path 2686" d="M184.532,120.027a3.529,3.529,0,1,0,3.534,3.524A3.53,3.53,0,0,0,184.532,120.027Z" transform="translate(-180.998 -120.027)"/>
    </g>
  </g>
</svg>
